<svg width="100" height="100" viewBox="0 0 24 24" fill="none" xmlns="http://www.w3.org/2000/svg">
  <rect width="24" height="24" fill="#212224"/>
  <path d="M12 2C8.13 2 5 5.13 5 9C5 10.64 5.62 12.1 6.69 13.23C6.26 14.45 5.38 15.91 5.29 17.58C5.27 18 5.53 18.39 5.93 18.51C6.34 18.63 6.75 18.42 6.88 18.01C7.06 17.45 7.41 17.01 7.92 16.73C8.45 16.44 9.07 16.33 9.69 16.46C10.59 16.66 11.5 16.66 12.41 16.46C13.03 16.33 13.65 16.44 14.18 16.73C14.69 17.01 15.04 17.45 15.22 18.01C15.34 18.42 15.75 18.63 16.16 18.51C16.56 18.39 16.83 18 16.81 17.58C16.72 15.91 15.84 14.45 15.31 13.23C16.38 12.1 17 10.64 17 9C17 5.13 13.87 2 12 2ZM9 9C8.45 9 8 8.55 8 8C8 7.45 8.45 7 9 7C9.55 7 10 7.45 10 8C10 8.55 9.55 9 9 9ZM15 9C14.45 9 14 8.55 14 8C14 7.45 14.45 7 15 7C15.55 7 16 7.45 16 8C16 8.55 15.55 9 15 9ZM12 13C11.45 13 11 12.55 11 12C11 11.45 11.45 11 12 11C12.55 11 13 11.45 13 12C13 12.55 12.55 13 12 13ZM12 14.5C10.57 14.5 9.27 15.19 8.65 16.42C8.15 17.42 8 18.62 8 19H16C16 18.62 15.85 17.42 15.35 16.42C14.73 15.19 13.43 14.5 12 14.5Z" fill="white"/>
</svg>
