<svg width="100" height="100" viewBox="0 0 24 24" fill="none" xmlns="http://www.w3.org/2000/svg">
  <path d="M12 2C8.69 2 6 4.69 6 8C6 11.08 8.61 13.51 12 13.95C15.39 13.51 18 11.08 18 8C18 4.69 15.31 2 12 2ZM14.5 7.5C15.33 7.5 16 8.17 16 9C16 9.83 15.33 10.5 14.5 10.5C13.67 10.5 13 9.83 13 9C13 8.17 13.67 7.5 14.5 7.5ZM9.5 7.5C10.33 7.5 11 8.17 11 9C11 9.83 10.33 10.5 9.5 10.5C8.67 10.5 8 9.83 8 9C8 8.17 8.67 7.5 9.5 7.5ZM12 15.5C9.83 15.5 8 16.67 8 18H16C16 16.67 14.17 15.5 12 15.5ZM4 20V18H2V20C2 21.11 2.9 22 4 22H20C21.1 22 22 21.11 22 20V18H20V20H4Z" fill="#ee6055"/>
</svg>
