<svg width="100" height="100" viewBox="0 0 24 24" fill="none" xmlns="http://www.w3.org/2000/svg">
  <path d="M12 1C8.13 1 5 4.13 5 8C5 9.34 5.34 10.57 5.94 11.61L5 20H8V18H16V20H19L18.06 11.61C18.66 10.57 19 9.34 19 8C19 4.13 15.87 1 12 1ZM8 11C7.45 11 7 10.55 7 10C7 9.45 7.45 9 8 9C8.55 9 9 9.45 9 10C9 10.55 8.55 11 8 11ZM12 13C11.45 13 11 12.55 11 12C11 11.45 11.45 11 12 11C12.55 11 13 11.45 13 12C13 12.55 12.55 13 12 13ZM16 11C15.45 11 15 10.55 15 10C15 9.45 15.45 9 16 9C16.55 9 17 9.45 17 10C17 10.55 16.55 11 16 11ZM12 15C10.9 15 10 15.9 10 17H14C14 15.9 13.1 15 12 15Z" fill="#aaf683"/>
</svg>
