<svg width="100" height="100" viewBox="0 0 24 24" fill="none" xmlns="http://www.w3.org/2000/svg">
  <path d="M12 2C8.13 2 5 5.13 5 9C5 11.25 6.12 13.19 7.85 14.21C8.04 14.32 8.21 14.45 8.35 14.6C8.45 14.69 8.54 14.79 8.61 14.89C9.13 15.62 9 16.6 9 18H15C15 16.6 14.87 15.62 15.39 14.89C15.46 14.79 15.55 14.69 15.65 14.6C15.79 14.45 15.96 14.32 16.15 14.21C17.88 13.19 19 11.25 19 9C19 5.13 15.87 2 12 2ZM10 9C9.45 9 9 8.55 9 8C9 7.45 9.45 7 10 7C10.55 7 11 7.45 11 8C11 8.55 10.55 9 10 9ZM14 9C13.45 9 13 8.55 13 8C13 7.45 13.45 7 14 7C14.55 7 15 7.45 15 8C15 8.55 14.55 9 14 9ZM12 15.5C10.9 15.5 10 16.4 10 17.5C10 18.6 10.9 19.5 12 19.5C13.1 19.5 14 18.6 14 17.5C14 16.4 13.1 15.5 12 15.5Z" fill="#ff9b85"/>
</svg>
